<?xml version="1.0" encoding="utf-8"?>
<!-- Generator: Adobe Illustrator 26.3.1, SVG Export Plug-In . SVG Version: 6.00 Build 0)  -->
<svg version="1.1" id="Layer_1" xmlns="http://www.w3.org/2000/svg" xmlns:xlink="http://www.w3.org/1999/xlink" x="0px" y="0px"
	 viewBox="0 0 3448 1505" style="enable-background:new 0 0 3448 1505;" xml:space="preserve">
<style type="text/css">
	.st0{fill:#FAEE36;}
	.st1{fill:#121617;}
	.st2{fill:#089EDA;}
	.st3{fill:#EA1C89;}
	.st4{fill:#414042;}
	.st5{fill:#347FC2;}
	.st6{fill:#FFFFFF;}
</style>
<g>
	<g>
		<g>
			<g>
				<g>
					<path class="st0" d="M828.55,878.98c0,6.69,5.46,12.13,12.13,12.13c6.7,0,12.15-5.44,12.15-12.13
						c0-6.69-5.46-12.13-12.15-12.13C834,866.85,828.55,872.29,828.55,878.98z"/>
					<path class="st0" d="M840.68,891.61c-6.96,0-12.63-5.67-12.63-12.63s5.66-12.63,12.63-12.63c6.98,0,12.65,5.67,12.65,12.63
						S847.65,891.61,840.68,891.61z M840.68,867.35c-6.41,0-11.63,5.22-11.63,11.63s5.22,11.63,11.63,11.63
						c6.43,0,11.65-5.22,11.65-11.63S847.1,867.35,840.68,867.35z"/>
				</g>
			</g>
		</g>
		<g>
			<g>
				<g>
					<path class="st1" d="M789.71,971.26c0-6.69-5.43-12.14-12.13-12.14c-6.68,0-12.13,5.45-12.13,12.14
						c0,6.68,5.45,12.12,12.13,12.12C784.28,983.38,789.71,977.94,789.71,971.26z"/>
					<path class="st1" d="M777.58,987.38c-8.89,0-16.13-7.23-16.13-16.12c0-8.9,7.23-16.14,16.13-16.14s16.13,7.24,16.13,16.14
						C793.71,980.15,786.47,987.38,777.58,987.38z M777.58,963.12c-4.48,0-8.13,3.65-8.13,8.14c0,4.48,3.65,8.12,8.13,8.12
						s8.13-3.64,8.13-8.12C785.71,966.77,782.06,963.12,777.58,963.12z"/>
				</g>
			</g>
		</g>
		<g>
			<g>
				<g>
					<path class="st2" d="M671.77,830.67c0-6.68-5.45-12.12-12.13-12.12c-6.7,0-12.15,5.44-12.15,12.12
						c0,6.7,5.45,12.14,12.15,12.14C666.33,842.81,671.77,837.37,671.77,830.67z"/>
					<path class="st2" d="M659.65,846.81c-8.9,0-16.15-7.24-16.15-16.14c0-8.89,7.24-16.12,16.15-16.12
						c8.89,0,16.13,7.23,16.13,16.12C675.77,839.57,668.54,846.81,659.65,846.81z M659.65,822.55c-4.49,0-8.15,3.64-8.15,8.12
						c0,4.49,3.65,8.14,8.15,8.14c4.48,0,8.13-3.65,8.13-8.14C667.77,826.2,664.13,822.55,659.65,822.55z"/>
				</g>
			</g>
		</g>
		<g>
			<g>
				<g>
					<path class="st3" d="M833.37,776.81c0-6.68-5.45-12.12-12.13-12.12c-6.7,0-12.15,5.44-12.15,12.12
						c0,6.7,5.45,12.14,12.15,12.14C827.92,788.94,833.37,783.51,833.37,776.81z"/>
					<path class="st3" d="M821.24,792.94c-8.9,0-16.15-7.24-16.15-16.14c0-8.89,7.24-16.12,16.15-16.12
						c8.89,0,16.13,7.23,16.13,16.12C837.37,785.71,830.13,792.94,821.24,792.94z M821.24,768.69c-4.49,0-8.15,3.64-8.15,8.12
						c0,4.49,3.65,8.14,8.15,8.14c4.48,0,8.13-3.65,8.13-8.14C829.37,772.33,825.72,768.69,821.24,768.69z"/>
				</g>
			</g>
		</g>
		<g>
			<g>
				<g>
					<polygon class="st4" points="922.94,708.24 892.81,656.09 922.94,603.94 983.15,603.94 1013.26,656.09 983.15,708.24 					"/>
				</g>
			</g>
			<g>
				<g>
					<polygon class="st4" points="1026.33,558.9 1013.48,536.61 1026.33,514.33 1052.07,514.33 1064.95,536.61 1052.07,558.9 					
						"/>
				</g>
			</g>
			<g>
				<g>
					<polygon class="st4" points="913.79,539.52 893.14,503.76 913.79,467.98 955.08,467.98 975.75,503.76 955.08,539.52 					"/>
				</g>
			</g>
			<g>
				<g>
					<polygon class="st4" points="753.56,572.71 726.18,525.31 760.27,477.88 797.98,477.88 835.68,525.31 808.29,572.71 					"/>
				</g>
			</g>
			<g>
				<g>
					<path class="st4" d="M964.96,734.49h-61.94L858.8,658.1l31.52-53.17c-12.21-20.6-34.93-50.78-33.08-48.2l-29.99,49.31h-94.71
						l-28.81-52.01c-7.43,10.58-19.7,30.81-27.26,42.08c0.56-0.83,1.11-1.65,1.67-2.48l-37.26,58.14
						c-14.16,23.37-26.27,45.18-36.35,65.36l53.68,83.35c0.49-0.02,0.95-0.15,1.45-0.15c16.71,0,30.32,13.6,30.32,30.32
						c0,16.73-13.61,30.33-30.32,30.33c-16.72,0-30.33-13.6-30.33-30.33c0-7.33,2.73-13.97,7.08-19.22l-44.11-68.39
						c-15.73,35.71-23.81,65.17-23.81,87.47c0,45.26,14.28,87.24,38.56,121.69l115.48-75.98l17.1-62.27l4.03-2.51
						c0,0,47.01-29.19,48.54-30.13c-0.29-1.67-0.53-3.35-0.53-5.09c0-16.72,13.61-30.32,30.32-30.32c16.73,0,30.34,13.6,30.34,30.32
						c0,16.72-13.61,30.32-30.34,30.32c-6.21,0-12-1.9-16.82-5.12c-1.79,1.45-3.69,2.68-5.23,3.64l-39.42,24.45l-17.09,62.19
						l-121.16,79.56c2.38,2.07,33.54,32.37,56.3,44.88l68.85-43.52c-0.02-0.46-0.15-0.91-0.15-1.39c0-16.72,13.62-30.33,30.32-30.33
						c16.72,0,30.33,13.61,30.33,30.33c0,16.71-13.61,30.32-30.33,30.32c-7.35,0-14.03-2.74-19.28-7.12l-53.55,33.85
						c5.76,2.22,11.64,4.19,17.63,5.9l6.55,1.73c16.42,4.1,33.59,6.29,51.27,6.29c48.44,0,93.11-16.38,128.81-43.87
						c0.29-0.22,0.77-0.65,0.77-0.65l-11.57-3.18l-2.52-4.02c0,0-48.99-80.28-49.92-81.73c-1.65,0.28-3.35,0.52-5.09,0.52
						c-16.7,0-30.31-13.61-30.31-30.32c0-16.73,13.61-30.33,30.31-30.33c16.73,0,30.32,13.6,30.32,30.33
						c0,6.21-1.88,11.99-5.1,16.82c1.45,1.79,2.68,3.69,3.64,5.22l44.24,72.64l17.59,4.83c0.09-0.09,0.16-0.17,0.26-0.27
						c36.83-38.19,54.91-90.53,60.27-147.69C994.59,801.82,963.68,727.69,964.96,734.49z"/>
				</g>
			</g>
		</g>
	</g>
	<g>
		<g>
			<g>
				<path class="st4" d="M1116.06,866.26v50.18h-11.39v-50.18H1116.06z"/>
				<path class="st4" d="M1116.56,916.94h-12.39v-51.18h12.39V916.94z M1105.17,915.94h10.39v-49.18h-10.39V915.94z"/>
			</g>
			<g>
				<path class="st4" d="M1159.99,916.44v-50.18h13.25l10.42,18.39c2.98,5.29,5.96,11.54,8.19,17.2h0.22
					c-0.74-6.63-0.97-13.4-0.97-20.92v-14.67h10.42v50.18h-11.91l-10.72-19.36c-2.98-5.36-6.25-11.84-8.71-17.72l-0.22,0.08
					c0.3,6.62,0.45,13.7,0.45,21.89v15.11H1159.99z"/>
				<path class="st4" d="M1202.03,916.94h-12.71l-10.86-19.61c-1.8-3.23-5.07-9.35-7.91-15.84c0.24,6.1,0.36,12.61,0.36,19.84v15.61
					h-11.42v-51.18h14.04l10.57,18.64c2.55,4.53,5.11,9.79,7.2,14.77c-0.48-5.23-0.69-10.99-0.69-18.24v-15.17h11.42V916.94z
					 M1189.91,915.94h11.12v-49.18h-9.42v14.17c0,8.49,0.3,14.93,0.96,20.86l0.06,0.56h-1.12l-0.12-0.32
					c-2.22-5.63-5.2-11.88-8.16-17.14l-10.28-18.13h-12.46v49.18h9.42v-14.61c0-8.03-0.15-15.19-0.45-21.86l-0.02-0.38l1.02-0.34
					l0.18,0.43c2.98,7.13,6.72,14.13,8.69,17.67L1189.91,915.94z"/>
			</g>
			<g>
				<path class="st4" d="M1245.83,904.75c3.05,1.56,7.74,3.13,12.58,3.13c5.21,0,7.97-2.16,7.97-5.43c0-3.13-2.38-4.91-8.41-7.07
					c-8.34-2.9-13.77-7.52-13.77-14.82c0-8.56,7.15-15.11,18.98-15.11c5.66,0,9.83,1.19,12.8,2.53l-2.53,9.16
					c-2.01-0.97-5.58-2.38-10.5-2.38s-7.3,2.23-7.3,4.84c0,3.2,2.83,4.62,9.31,7.07c8.86,3.28,13.03,7.89,13.03,14.96
					c0,8.41-6.48,15.56-20.25,15.56c-5.73,0-11.39-1.49-14.22-3.05L1245.83,904.75z"/>
				<path class="st4" d="M1257.74,917.68c-6.06,0-11.75-1.61-14.46-3.11l-0.34-0.19l2.55-10.37l0.56,0.29
					c3.76,1.92,8.37,3.07,12.35,3.07c4.74,0,7.47-1.8,7.47-4.93c0-2.77-2.04-4.44-8.08-6.6c-9.36-3.26-14.1-8.4-14.1-15.29
					c0-9.34,7.83-15.61,19.48-15.61c4.83,0,9.21,0.87,13.01,2.58l0.39,0.18l-2.81,10.15l-0.54-0.26c-3.21-1.55-6.67-2.33-10.28-2.33
					c-4.13,0-6.8,1.7-6.8,4.34c0,2.74,2.24,4.05,8.98,6.6c9.11,3.37,13.35,8.27,13.35,15.43
					C1278.49,909.03,1273.06,917.68,1257.74,917.68z M1244.1,913.87c2.72,1.39,8,2.81,13.64,2.81c14.56,0,19.75-7.78,19.75-15.06
					c0-6.78-3.92-11.25-12.7-14.5c-6.7-2.54-9.63-4.02-9.63-7.54c0-2.46,2.04-5.34,7.8-5.34c3.56,0,6.98,0.73,10.17,2.18l2.26-8.17
					c-3.58-1.54-7.68-2.31-12.21-2.31c-11.06,0-18.48,5.87-18.48,14.61c0,6.5,4.4,11.19,13.44,14.34c5.54,1.98,8.75,3.85,8.75,7.54
					c0,3.72-3.16,5.93-8.47,5.93c-3.93,0-8.46-1.08-12.25-2.9L1244.1,913.87z"/>
			</g>
			<g>
				<path class="st4" d="M1331.08,866.26v28.89c0,8.64,3.28,13.03,9.08,13.03c5.96,0,9.23-4.17,9.23-13.03v-28.89h11.32v28.14
					c0,15.48-7.82,22.86-20.92,22.86c-12.66,0-20.1-7-20.1-23v-27.99H1331.08z"/>
				<path class="st4" d="M1339.79,917.76c-13.67,0-20.6-7.91-20.6-23.5v-28.49h12.39v29.39c0,5.72,1.49,12.53,8.58,12.53
					c5.79,0,8.73-4.22,8.73-12.53v-29.39h12.32v28.64C1361.21,909.68,1353.8,917.76,1339.79,917.76z M1320.18,866.76v27.49
					c0,14.93,6.59,22.5,19.6,22.5c13.36,0,20.42-7.73,20.42-22.36v-27.64h-10.32v28.39c0,8.98-3.27,13.53-9.73,13.53
					c-6.18,0-9.58-4.8-9.58-13.53v-28.39H1320.18z"/>
			</g>
			<g>
				<path class="st4" d="M1447.07,897.23c-0.22-6.03-0.45-13.33-0.45-20.62h-0.22c-1.56,6.4-3.65,13.55-5.58,19.43l-6.1,19.58h-8.86
					l-5.36-19.43c-1.64-5.88-3.35-13.03-4.54-19.58h-0.15c-0.3,6.77-0.52,14.52-0.89,20.77l-0.89,19.06h-10.5l3.2-50.18h15.11
					l4.91,16.75c1.56,5.81,3.13,12.06,4.24,17.94h0.22c1.41-5.81,3.13-12.43,4.76-18.02l5.36-16.68h14.81l2.75,50.18h-11.09
					L1447.07,897.23z"/>
				<path class="st4" d="M1459.43,916.94h-12.1l-0.76-19.69c-0.18-4.86-0.38-11.06-0.43-17.55c-1.39,5.35-3.1,11.2-4.84,16.49
					l-6.21,19.92h-9.61l-5.46-19.8c-1.45-5.22-2.81-10.88-3.86-16.04c-0.05,1.24-0.1,2.49-0.15,3.75c-0.17,4.58-0.36,9.32-0.6,13.38
					l-0.92,19.53h-11.51l3.26-51.18h15.96l5.02,17.11c1.73,6.41,2.98,11.63,3.92,16.27c1.15-4.65,2.73-10.79,4.35-16.34l5.48-17.04
					h15.65L1459.43,916.94z M1448.29,915.94h10.08l-2.7-49.18h-13.98l-5.25,16.33c-1.83,6.23-3.59,13.22-4.75,17.98l-0.09,0.38
					h-1.03l-0.08-0.41c-0.96-5.03-2.3-10.72-4.24-17.9l-4.81-16.38h-14.27l-3.14,49.18h9.49l0.87-18.58
					c0.24-4.05,0.42-8.79,0.6-13.36c0.1-2.52,0.19-5.02,0.3-7.4l0.02-0.48h1.04l0.07,0.41c1.09,5.98,2.74,13.1,4.53,19.53
					l5.26,19.06h8.11l6-19.23c2.06-6.27,4.1-13.34,5.58-19.4l0.09-0.38h1.12v0.5c0,7.57,0.24,14.99,0.45,20.6L1448.29,915.94z"/>
			</g>
			<g>
				<path class="st4" d="M1547.65,890.83c0,16.45-9.98,26.43-24.64,26.43c-14.89,0-23.6-11.24-23.6-25.54
					c0-15.04,9.6-26.28,24.42-26.28C1539.24,865.44,1547.65,876.98,1547.65,890.83z M1511.4,891.5c0,9.83,4.62,16.75,12.21,16.75
					c7.67,0,12.06-7.3,12.06-17.05c0-9.01-4.32-16.75-12.14-16.75C1515.86,874.45,1511.4,881.75,1511.4,891.5z"/>
				<path class="st4" d="M1523.01,917.76c-14.42,0-24.1-10.46-24.1-26.04c0-15.77,10.25-26.78,24.92-26.78
					c16.8,0,24.32,13,24.32,25.89C1548.15,907.19,1538.28,917.76,1523.01,917.76z M1523.83,865.94c-14.08,0-23.92,10.6-23.92,25.78
					c0,14.98,9.28,25.04,23.1,25.04c14.67,0,24.14-10.18,24.14-25.93C1547.15,878.44,1539.94,865.94,1523.83,865.94z
					 M1523.61,908.75c-7.72,0-12.71-6.77-12.71-17.25c0-10.5,5.08-17.55,12.63-17.55c7.44,0,12.64,7.09,12.64,17.25
					C1536.17,901.86,1531.24,908.75,1523.61,908.75z M1523.53,874.95c-7.07,0-11.63,6.5-11.63,16.55c0,9.87,4.6,16.25,11.71,16.25
					c7.02,0,11.56-6.5,11.56-16.55C1535.17,883.38,1531.53,874.95,1523.53,874.95z"/>
			</g>
			<g>
				<path class="st4" d="M1589.57,904.75c3.05,1.56,7.74,3.13,12.58,3.13c5.21,0,7.97-2.16,7.97-5.43c0-3.13-2.38-4.91-8.41-7.07
					c-8.34-2.9-13.77-7.52-13.77-14.82c0-8.56,7.15-15.11,18.98-15.11c5.66,0,9.83,1.19,12.81,2.53l-2.53,9.16
					c-2.01-0.97-5.58-2.38-10.5-2.38s-7.3,2.23-7.3,4.84c0,3.2,2.83,4.62,9.31,7.07c8.86,3.28,13.03,7.89,13.03,14.96
					c0,8.41-6.48,15.56-20.25,15.56c-5.73,0-11.39-1.49-14.22-3.05L1589.57,904.75z"/>
				<path class="st4" d="M1601.48,917.68c-6.06,0-11.75-1.61-14.46-3.11l-0.34-0.19l2.55-10.37l0.56,0.29
					c3.76,1.92,8.37,3.07,12.35,3.07c4.75,0,7.47-1.8,7.47-4.93c0-2.77-2.04-4.44-8.08-6.6c-9.36-3.26-14.1-8.4-14.1-15.29
					c0-9.34,7.83-15.61,19.48-15.61c4.83,0,9.21,0.87,13.01,2.58l0.39,0.18l-2.81,10.15l-0.54-0.26c-3.21-1.55-6.67-2.33-10.28-2.33
					c-4.13,0-6.8,1.7-6.8,4.34c0,2.74,2.24,4.05,8.98,6.6c9.11,3.37,13.35,8.27,13.35,15.43
					C1622.23,909.03,1616.8,917.68,1601.48,917.68z M1587.84,913.87c2.72,1.39,8,2.81,13.64,2.81c14.56,0,19.75-7.78,19.75-15.06
					c0-6.78-3.92-11.25-12.7-14.5c-6.7-2.54-9.63-4.02-9.63-7.54c0-2.46,2.04-5.34,7.8-5.34c3.56,0,6.98,0.73,10.17,2.18l2.26-8.17
					c-3.58-1.54-7.68-2.31-12.21-2.31c-11.06,0-18.48,5.87-18.48,14.61c0,6.5,4.4,11.19,13.44,14.34c5.54,1.98,8.75,3.85,8.75,7.54
					c0,3.72-3.17,5.93-8.47,5.93c-3.93,0-8.46-1.08-12.25-2.9L1587.84,913.87z"/>
			</g>
			<g>
				<path class="st4" d="M1721.27,916.44v-20.55l-15.86-29.63h12.95l5.14,12.06c1.56,3.65,2.61,6.33,3.87,9.6h0.15
					c1.12-3.13,2.31-6.03,3.8-9.6l5.06-12.06h12.73l-16.53,29.26v20.92H1721.27z"/>
				<path class="st4" d="M1733.09,916.94h-12.32v-20.92l-16.19-30.26h14.12l5.27,12.36c1.37,3.19,2.31,5.58,3.47,8.57
					c1.03-2.79,2.13-5.46,3.42-8.57l5.19-12.37h13.92l-16.88,29.89V916.94z M1721.77,915.94h10.32v-20.55l0.06-0.11l16.11-28.51
					h-11.54l-4.93,11.75c-1.45,3.49-2.66,6.41-3.79,9.58l-0.12,0.33h-0.84l-0.12-0.32c-1.35-3.5-2.35-6.05-3.86-9.59l-5.01-11.76
					h-11.79l15.52,29V915.94z"/>
			</g>
			<g>
				<path class="st4" d="M1844.57,875.79h-13.47v-9.53h38.56v9.53h-13.7v40.65h-11.39V875.79z"/>
				<path class="st4" d="M1856.46,916.94h-12.39v-40.65h-13.47v-10.53h39.56v10.53h-13.7V916.94z M1845.07,915.94h10.39v-40.65h13.7
					v-8.53h-37.56v8.53h13.47V915.94z"/>
			</g>
			<g>
				<path class="st4" d="M1939.64,895.22h-18.46v11.91h20.62v9.31h-32.01v-50.18h30.97v9.31h-19.58v10.42h18.46V895.22z"/>
				<path class="st4" d="M1942.3,916.94h-33.01v-51.18h31.97v10.31h-19.58v9.42h18.46v10.23h-18.46v10.91h20.62V916.94z
					 M1910.29,915.94h31.01v-8.31h-20.62v-12.91h18.46v-8.23h-18.46v-11.42h19.58v-8.31h-29.97V915.94z"/>
			</g>
			<g>
				<path class="st4" d="M2020.49,915.03c-2.08,1.04-6.77,2.16-12.88,2.16c-17.35,0-26.28-10.79-26.28-25.09
					c0-17.12,12.21-26.65,27.4-26.65c5.88,0,10.35,1.19,12.36,2.23l-2.31,9.01c-2.31-0.97-5.51-1.86-9.53-1.86
					c-9.01,0-16.01,5.43-16.01,16.6c0,10.05,5.96,16.38,16.08,16.38c3.42,0,7.22-0.75,9.46-1.64L2020.49,915.03z"/>
				<path class="st4" d="M2007.62,917.68c-16.52,0-26.78-9.81-26.78-25.59c0-16.24,11.21-27.15,27.9-27.15
					c6.03,0,10.55,1.23,12.59,2.29l0.35,0.18l-2.55,9.95l-0.53-0.22c-2.88-1.21-6.02-1.82-9.34-1.82c-9.56,0-15.51,6.17-15.51,16.1
					c0,9.94,5.82,15.88,15.58,15.88c3.1,0,6.91-0.66,9.27-1.6l0.56-0.22l1.9,9.83l-0.34,0.17
					C2018.68,916.49,2014.02,917.68,2007.62,917.68z M2008.73,865.94c-16.09,0-26.9,10.51-26.9,26.15
					c0,15.17,9.88,24.59,25.78,24.59c5.54,0,10.07-0.95,12.31-1.95l-1.53-7.9c-2.5,0.88-6.05,1.46-9.08,1.46
					c-10.23,0-16.58-6.47-16.58-16.88c0-10.55,6.32-17.1,16.51-17.1c3.24,0,6.33,0.57,9.19,1.68l2.06-8.06
					C2018.42,866.99,2014.25,865.94,2008.73,865.94z"/>
			</g>
			<g>
				<path class="st4" d="M2062.04,916.44v-50.18h13.25l10.42,18.39c2.98,5.29,5.96,11.54,8.19,17.2h0.22
					c-0.74-6.63-0.97-13.4-0.97-20.92v-14.67h10.42v50.18h-11.91l-10.72-19.36c-2.98-5.36-6.25-11.84-8.71-17.72l-0.22,0.08
					c0.3,6.62,0.45,13.7,0.45,21.89v15.11H2062.04z"/>
				<path class="st4" d="M2104.08,916.94h-12.71l-10.86-19.61c-1.8-3.24-5.08-9.36-7.91-15.84c0.24,6.09,0.36,12.61,0.36,19.84
					v15.61h-11.42v-51.18h14.04l10.57,18.64c2.55,4.54,5.12,9.79,7.2,14.76c-0.48-5.24-0.69-11-0.69-18.24v-15.17h11.42V916.94z
					 M2091.96,915.94h11.12v-49.18h-9.42v14.17c0,8.49,0.3,14.92,0.96,20.86l0.06,0.56h-1.12l-0.12-0.32
					c-2.22-5.62-5.19-11.87-8.16-17.14L2075,866.76h-12.46v49.18h9.42v-14.61c0-8.04-0.15-15.19-0.45-21.86l-0.02-0.38l1.02-0.34
					l0.18,0.43c2.97,7.12,6.72,14.13,8.69,17.67L2091.96,915.94z"/>
			</g>
			<g>
				<path class="st4" d="M2193.44,890.83c0,16.45-9.98,26.43-24.64,26.43c-14.89,0-23.6-11.24-23.6-25.54
					c0-15.04,9.6-26.28,24.42-26.28C2185.03,865.44,2193.44,876.98,2193.44,890.83z M2157.19,891.5c0,9.83,4.62,16.75,12.21,16.75
					c7.67,0,12.06-7.3,12.06-17.05c0-9.01-4.32-16.75-12.13-16.75C2161.65,874.45,2157.19,881.75,2157.19,891.5z"/>
				<path class="st4" d="M2168.8,917.76c-14.41,0-24.1-10.46-24.1-26.04c0-15.77,10.25-26.78,24.92-26.78
					c16.8,0,24.32,13,24.32,25.89C2193.94,907.19,2184.07,917.76,2168.8,917.76z M2169.62,865.94c-14.08,0-23.92,10.6-23.92,25.78
					c0,14.98,9.28,25.04,23.1,25.04c14.67,0,24.14-10.18,24.14-25.93C2192.94,878.44,2185.73,865.94,2169.62,865.94z M2169.4,908.75
					c-7.72,0-12.71-6.77-12.71-17.25c0-10.5,5.08-17.55,12.63-17.55c7.44,0,12.63,7.09,12.63,17.25
					C2181.96,901.86,2177.03,908.75,2169.4,908.75z M2169.32,874.95c-7.07,0-11.63,6.5-11.63,16.55c0,9.87,4.6,16.25,11.71,16.25
					c7.02,0,11.56-6.5,11.56-16.55C2180.96,883.38,2177.32,874.95,2169.32,874.95z"/>
			</g>
			<g>
				<path class="st4" d="M2234.99,866.26h11.39v40.65h19.95v9.53h-31.34V866.26z"/>
				<path class="st4" d="M2266.83,916.94h-32.34v-51.18h12.39v40.65h19.95V916.94z M2235.49,915.94h30.34v-8.53h-19.95v-40.65
					h-10.39V915.94z"/>
			</g>
			<g>
				<path class="st4" d="M2350.24,890.83c0,16.45-9.98,26.43-24.64,26.43c-14.89,0-23.6-11.24-23.6-25.54
					c0-15.04,9.6-26.28,24.42-26.28C2341.83,865.44,2350.24,876.98,2350.24,890.83z M2313.98,891.5c0,9.83,4.62,16.75,12.21,16.75
					c7.67,0,12.06-7.3,12.06-17.05c0-9.01-4.32-16.75-12.13-16.75C2318.45,874.45,2313.98,881.75,2313.98,891.5z"/>
				<path class="st4" d="M2325.6,917.76c-14.41,0-24.1-10.46-24.1-26.04c0-15.77,10.25-26.78,24.92-26.78
					c16.8,0,24.32,13,24.32,25.89C2350.74,907.19,2340.87,917.76,2325.6,917.76z M2326.42,865.94c-14.08,0-23.92,10.6-23.92,25.78
					c0,14.98,9.28,25.04,23.1,25.04c14.67,0,24.14-10.18,24.14-25.93C2349.74,878.44,2342.53,865.94,2326.42,865.94z
					 M2326.19,908.75c-7.72,0-12.71-6.77-12.71-17.25c0-10.5,5.08-17.55,12.63-17.55c7.44,0,12.63,7.09,12.63,17.25
					C2338.75,901.86,2333.82,908.75,2326.19,908.75z M2326.12,874.95c-7.07,0-11.63,6.5-11.63,16.55c0,9.87,4.6,16.25,11.71,16.25
					c7.02,0,11.56-6.5,11.56-16.55C2337.75,883.38,2334.11,874.95,2326.12,874.95z"/>
			</g>
			<g>
				<path class="st4" d="M2433.7,914.13c-3.5,1.19-10.12,2.83-16.75,2.83c-9.16,0-15.78-2.31-20.4-6.78
					c-4.62-4.32-7.15-10.87-7.07-18.24c0.07-16.68,12.21-26.21,28.66-26.21c6.48,0,11.47,1.27,13.92,2.46l-2.38,9.08
					c-2.75-1.19-6.18-2.16-11.69-2.16c-9.46,0-16.6,5.36-16.6,16.23c0,10.35,6.48,16.45,15.78,16.45c2.61,0,4.69-0.3,5.58-0.75
					v-10.5h-7.74v-8.86h18.69V914.13z"/>
				<path class="st4" d="M2416.95,917.46c-9.15,0-15.94-2.26-20.75-6.92c-4.73-4.43-7.3-11.04-7.22-18.6
					c0.07-16.22,11.52-26.7,29.16-26.7c6.61,0,11.64,1.29,14.14,2.51l0.37,0.18l-2.63,10.04l-0.53-0.23
					c-2.28-0.99-5.65-2.12-11.49-2.12c-10.08,0-16.1,5.88-16.1,15.73c0,9.69,6,15.95,15.28,15.95c2.18,0,4.11-0.22,5.08-0.58v-9.67
					h-7.74v-9.86h19.69v27.29l-0.34,0.12C2429.8,915.99,2423.23,917.46,2416.95,917.46z M2418.14,866.24
					c-17.04,0-28.09,10.09-28.16,25.71c-0.07,7.29,2.38,13.63,6.91,17.87c4.62,4.47,11.18,6.64,20.06,6.64
					c5.99,0,12.25-1.37,16.25-2.69V888.2h-17.69v7.86h7.74v11.31l-0.28,0.14c-1,0.5-3.17,0.8-5.81,0.8
					c-9.89,0-16.28-6.65-16.28-16.95c0-10.32,6.55-16.73,17.1-16.73c5.59,0,9,1.01,11.35,1.97l2.13-8.12
					C2428.96,867.36,2424.27,866.24,2418.14,866.24z"/>
			</g>
			<g>
				<path class="st4" d="M2488.05,866.26v50.18h-11.39v-50.18H2488.05z"/>
				<path class="st4" d="M2488.55,916.94h-12.39v-51.18h12.39V916.94z M2477.16,915.94h10.39v-49.18h-10.39V915.94z"/>
			</g>
			<g>
				<path class="st4" d="M2543.66,903.56l-3.57,12.88h-11.76l15.34-50.18h14.89l15.56,50.18h-12.21l-3.87-12.88H2543.66z
					 M2556.39,895.07l-3.13-10.65c-0.89-2.98-1.79-6.7-2.53-9.68h-0.15c-0.74,2.98-1.49,6.77-2.31,9.68l-2.98,10.65H2556.39z"/>
				<path class="st4" d="M2574.79,916.94h-13.26l-3.87-12.88h-13.62l-3.57,12.88h-12.82l15.64-51.18h15.63L2574.79,916.94z
					 M2562.28,915.94h11.16l-15.25-49.18h-14.15L2529,915.94h10.71l3.57-12.88h15.12L2562.28,915.94z M2557.06,895.57h-12.42
					l3.16-11.28c0.49-1.73,0.95-3.79,1.4-5.79c0.3-1.35,0.6-2.68,0.9-3.88l0.09-0.38h0.93l0.47,1.87c0.66,2.66,1.41,5.68,2.15,8.16
					L2557.06,895.57z M2545.96,894.57h9.77l-2.94-10.01c-0.73-2.45-1.47-5.39-2.12-8.02c-0.16,0.71-0.33,1.44-0.49,2.17
					c-0.45,2.01-0.92,4.09-1.41,5.84L2545.96,894.57z"/>
			</g>
		</g>
	</g>
	<g>
		<g>
			<path class="st5" d="M1279.91,769.94l-74.31-116.08l-75.55,116.08h-30.3l95.81-144.12h19.86l95.2,144.12H1279.91z"/>
		</g>
		<g>
			<path class="st5" d="M1400.29,769.94c-8.19,0-15.15-0.85-20.88-2.56c-5.73-1.71-10.41-4.1-14.03-7.17
				c-3.62-3.07-6.24-6.72-7.88-10.95c-1.64-4.23-2.46-8.94-2.46-14.13v-74.52c0-5.18,0.82-9.9,2.46-14.13
				c1.64-4.23,4.26-7.88,7.88-10.95c3.61-3.07,8.29-5.46,14.03-7.16c5.73-1.7,12.69-2.56,20.88-2.56h116.08v21.29h-116.08
				c-12.01,0-18.02,4.44-18.02,13.31v74.93c0,8.87,6,13.31,18.02,13.31h116.08v21.29H1400.29z"/>
		</g>
		<g>
			<path class="st5" d="M1624.87,769.94c-8.19,0-15.15-0.85-20.88-2.56c-5.73-1.71-10.41-4.1-14.03-7.17
				c-3.62-3.07-6.24-6.72-7.88-10.95c-1.64-4.23-2.46-8.94-2.46-14.13V625.82h27.23v109.53c0,8.87,6,13.31,18.02,13.31h89.46
				c12.01,0,18.02-4.43,18.02-13.31V625.82h27.23v109.32c0,5.19-0.51,9.9-1.54,14.13c-1.02,4.23-3.01,7.88-5.94,10.95
				c-2.94,3.07-6.96,5.46-12.08,7.17c-5.11,1.71-11.77,2.56-19.96,2.56H1624.87z"/>
		</g>
		<g>
			<path class="st5" d="M1986.41,769.94l-74.32-116.08l-75.54,116.08h-30.3l95.81-144.12h19.86l95.2,144.12H1986.41z"/>
		</g>
		<g>
			<path class="st5" d="M2208.33,769.94l-33.78-64.29h-75.95v64.29h-27.23V625.82h122.42c8.19,0,15.15,0.85,20.88,2.56
				c5.73,1.71,10.41,4.1,14.03,7.16c3.61,3.07,6.24,6.73,7.88,10.95c1.63,4.23,2.46,8.94,2.46,14.13v10.24
				c0,9.28-2.73,17.02-8.19,23.23c-5.46,6.21-14.6,9.93-27.43,11.16l33.98,64.69H2208.33z M2211.81,660.41
				c0-8.87-6.01-13.31-18.02-13.31h-95.2v37.26h95.2c12.01,0,18.02-4.44,18.02-13.31V660.41z"/>
		</g>
		<g>
			<path class="st5" d="M2302.92,769.94V625.82h27.23v144.12H2302.92z"/>
		</g>
		<g>
			<path class="st5" d="M2442.94,769.94c-8.19,0-15.15-0.85-20.88-2.56c-5.73-1.71-10.41-4.1-14.02-7.17
				c-3.62-3.07-6.24-6.72-7.88-10.95c-1.63-4.23-2.46-8.94-2.46-14.13v-74.52c0-5.18,0.82-9.9,2.46-14.13
				c1.64-4.23,4.26-7.88,7.88-10.95c3.62-3.07,8.29-5.46,14.02-7.16c5.73-1.7,12.69-2.56,20.88-2.56h95.2
				c8.19,0,15.15,0.85,20.88,2.56c5.73,1.71,10.41,4.1,14.02,7.16c3.61,3.07,6.24,6.73,7.88,10.95c1.64,4.23,2.46,8.94,2.46,14.13
				v74.52c0,5.19-0.82,9.9-2.46,14.13c-1.64,4.23-4.27,7.88-7.88,10.95c-3.62,3.07-8.29,5.46-14.02,7.17
				c-5.73,1.71-12.69,2.56-20.88,2.56H2442.94z M2556.16,660.41c0-8.87-6.01-13.31-18.02-13.31h-95.2
				c-12.01,0-18.01,4.44-18.01,13.31v74.93c0,8.87,6,13.31,18.01,13.31h95.2c12.01,0,18.02-4.43,18.02-13.31V660.41z"/>
		</g>
	</g>
</g>
</svg>
